# xmcd
#
# Track frame offsets: 
#        182
#        30112
#        51017
#        79485
#        129822
#        153717
#
# Disc length: 2213 seconds
#
# Revision: 3
# Processed by: cddbd v1.5.2PL0 Copyright (c) Steve Scherf et al.
# Submitted via: ExactAudioCopy v0.99pb1
#
DISCID=3e08a306
DTITLE=Super Guitar Duo - Hotel California
DYEAR=1983
DGENRE=Classical
TTITLE0=Mrs Robinson
TTITLE1=Honestly
TTITLE2=Blues for Earl Klugh
TTITLE3=Hotel California
TTITLE4=Poinciana
TTITLE5=Arthur's theme
EXTD=
EXTT0=
EXTT1=
EXTT2=
EXTT3=
EXTT4=
EXTT5=
PLAYORDER=
